# xmcd
#
# Track frame offsets:
# 182
# 34715
# 46607
# 60267
# 67767
# 83285
# 94577
# 98110
# 116390
# 123982
# 144340
# 154947
# 161225
# 176572
# 184105
# 192487
#
# Disc length: 2904 seconds
#
#
# Revision: 0
# Processed by: cddbd v1.4PL0 Copyright (c) Steve Scherf et al.
# Submitted via: FreeRIP 2.30 
#
DISCID=bf0b5610
DTITLE=Barber (1) and Gerber (2-16) - Adagio and The Old Farmer's Alamanac
DYEAR=1900
DGENRE=Classical
TTITLE0=Barber - Adagio for Strings
TTITLE1=Introduction
TTITLE2=Psalm
TTITLE3=March
TTITLE4=Judy-Walk
TTITLE5=Lullaby
TTITLE6=Pastoral
TTITLE7=Summer is A-Coming In
TTITLE8=Morning Song
TTITLE9=Funeral Ceremony
TTITLE10=Country Dance
TTITLE11=Autumn
TTITLE12=Country Dance
TTITLE13=Robin Adair
TTITLE14=Christmas
TTITLE15=Conclusion
EXTD=
EXTT0=
EXTT1=
EXTT2=
EXTT3=
EXTT4=
EXTT5=
EXTT6=
EXTT7=
EXTT8=
EXTT9=
EXTT10=
EXTT11=
EXTT12=
EXTT13=
EXTT14=
EXTT15=
PLAYORDER=
